solid NETPIE_Glass
facet normal 1.0 0.0 0.0
  outer loop
    vertex -5.0753492211311375 3.5005378788871138 -1.8329782136561336e-15
    vertex -5.0753492211311375 -6.889896122877929 0.9999999999999982
    vertex -5.0753492211311375 -8.889896122877929 -1.8329782136561336e-15
  endloop
endfacet
facet normal 1.0 0.0 0.0
  outer loop
    vertex -5.0753492211311375 -6.889896122877929 0.9999999999999982
    vertex -5.0753492211311375 3.5005378788871138 -1.8329782136561336e-15
    vertex -5.0753492211311375 3.5005378788871138 0.9999999999999982
  endloop
endfacet
facet normal 2.562610774894416e-17 0.4472135954999581 -0.8944271909999159
  outer loop
    vertex 4.924650778868868 -6.88989612287793 0.9999999999999982
    vertex -5.0753492211311375 -8.889896122877929 -1.8329782136561336e-15
    vertex -5.0753492211311375 -6.889896122877929 0.9999999999999982
  endloop
endfacet
facet normal 2.562610774894416e-17 0.4472135954999581 -0.8944271909999159
  outer loop
    vertex -5.0753492211311375 -8.889896122877929 -1.8329782136561336e-15
    vertex 4.924650778868868 -6.88989612287793 0.9999999999999982
    vertex 4.924650778868868 -8.889896122877929 -1.8329782136561336e-15
  endloop
endfacet
facet normal -1.0 0.0 0.0
  outer loop
    vertex 4.924650778868868 -6.88989612287793 0.9999999999999982
    vertex 4.924650778868868 3.610103877122065 -1.8329782136561336e-15
    vertex 4.924650778868868 -8.889896122877929 -1.8329782136561336e-15
  endloop
endfacet
facet normal -1.0 0.0 0.0
  outer loop
    vertex 4.924650778868868 3.610103877122065 -1.8329782136561336e-15
    vertex 4.924650778868868 -6.88989612287793 0.9999999999999982
    vertex 4.924650778868868 3.610103877122065 0.9999999999999982
  endloop
endfacet
facet normal -0.7518398074789757 -0.6593458151000707 -0.0
  outer loop
    vertex 4.631757560055416 4.317210658308612 0.9999999999999982
    vertex 4.718004119160103 4.2188653061307875 -1.8329782136561336e-15
    vertex 4.718004119160103 4.2188653061307875 0.9999999999999982
  endloop
endfacet
facet normal -0.7518398074789757 -0.6593458151000707 -0.0
  outer loop
    vertex 4.718004119160103 4.2188653061307875 -1.8329782136561336e-15
    vertex 4.631757560055416 4.317210658308612 0.9999999999999982
    vertex 4.631757560055416 4.317210658308612 -1.8329782136561336e-15
  endloop
endfacet
facet normal -0.8314696123025479 -0.5555702330195982 -0.0
  outer loop
    vertex 4.718004119160103 4.2188653061307875 0.9999999999999982
    vertex 4.790676182653306 4.110103877122066 -1.8329782136561336e-15
    vertex 4.790676182653306 4.110103877122066 0.9999999999999982
  endloop
endfacet
facet normal -0.8314696123025479 -0.5555702330195982 -0.0
  outer loop
    vertex 4.790676182653306 4.110103877122066 -1.8329782136561336e-15
    vertex 4.718004119160103 4.2188653061307875 0.9999999999999982
    vertex 4.718004119160103 4.2188653061307875 -1.8329782136561336e-15
  endloop
endfacet
facet normal -0.8968727415326889 -0.4422886902190001 -0.0
  outer loop
    vertex 4.790676182653306 4.110103877122066 0.9999999999999982
    vertex 4.848530311380155 3.992787309487155 -1.8329782136561336e-15
    vertex 4.848530311380155 3.992787309487155 0.9999999999999982
  endloop
endfacet
facet normal -0.8968727415326889 -0.4422886902190001 -0.0
  outer loop
    vertex 4.848530311380155 3.992787309487155 -1.8329782136561336e-15
    vertex 4.790676182653306 4.110103877122066 0.9999999999999982
    vertex 4.790676182653306 4.110103877122066 -1.8329782136561336e-15
  endloop
endfacet
facet normal -0.9469301294951061 -0.3214394653031607 -0.0
  outer loop
    vertex 4.848530311380155 3.992787309487155 0.9999999999999982
    vertex 4.890576605157936 3.8689229222245856 -1.8329782136561336e-15
    vertex 4.890576605157936 3.8689229222245856 0.9999999999999982
  endloop
endfacet
facet normal -0.9469301294951061 -0.3214394653031607 -0.0
  outer loop
    vertex 4.890576605157936 3.8689229222245856 -1.8329782136561336e-15
    vertex 4.848530311380155 3.992787309487155 0.9999999999999982
    vertex 4.848530311380155 3.992787309487155 -1.8329782136561336e-15
  endloop
endfacet
facet normal -0.9807852804032302 -0.1950903220161292 -0.0
  outer loop
    vertex 4.890576605157936 3.8689229222245856 0.9999999999999982
    vertex 4.916095640242678 3.7406300693421155 -1.8329782136561336e-15
    vertex 4.916095640242678 3.7406300693421155 0.9999999999999982
  endloop
endfacet
facet normal -0.9807852804032302 -0.1950903220161292 -0.0
  outer loop
    vertex 4.916095640242678 3.7406300693421155 -1.8329782136561336e-15
    vertex 4.890576605157936 3.8689229222245856 0.9999999999999982
    vertex 4.890576605157936 3.8689229222245856 -1.8329782136561336e-15
  endloop
endfacet
facet normal -0.9978589232386036 -0.06540312923014303 -0.0
  outer loop
    vertex 4.916095640242678 3.7406300693421155 0.9999999999999982
    vertex 4.924650778868868 3.610103877122065 -1.8329782136561336e-15
    vertex 4.924650778868868 3.610103877122065 0.9999999999999982
  endloop
endfacet
facet normal -0.9978589232386036 -0.06540312923014303 -0.0
  outer loop
    vertex 4.924650778868868 3.610103877122065 -1.8329782136561336e-15
    vertex 4.916095640242678 3.7406300693421155 0.9999999999999982
    vertex 4.916095640242678 3.7406300693421155 -1.8329782136561336e-15
  endloop
endfacet
facet normal -0.32143946530315815 -0.9469301294951069 -0.0
  outer loop
    vertex 4.307334211233957 4.533983409633353 0.9999999999999982
    vertex 4.183469823971389 4.576029703411132 -1.8329782136561336e-15
    vertex 4.307334211233957 4.533983409633353 -1.8329782136561336e-15
  endloop
endfacet
facet normal -0.32143946530315815 -0.9469301294951069 -0.0
  outer loop
    vertex 4.183469823971389 4.576029703411132 -1.8329782136561336e-15
    vertex 4.307334211233957 4.533983409633353 0.9999999999999982
    vertex 4.183469823971389 4.576029703411132 0.9999999999999982
  endloop
endfacet
facet normal -0.19509032201613255 -0.9807852804032297 -0.0
  outer loop
    vertex 4.183469823971389 4.576029703411132 0.9999999999999982
    vertex 4.05517697108892 4.601548738495875 -1.8329782136561336e-15
    vertex 4.183469823971389 4.576029703411132 -1.8329782136561336e-15
  endloop
endfacet
facet normal -0.19509032201613255 -0.9807852804032297 -0.0
  outer loop
    vertex 4.05517697108892 4.601548738495875 -1.8329782136561336e-15
    vertex 4.183469823971389 4.576029703411132 0.9999999999999982
    vertex 4.05517697108892 4.601548738495875 0.9999999999999982
  endloop
endfacet
facet normal -0.06540312923013873 -0.9978589232386038 -0.0
  outer loop
    vertex 4.05517697108892 4.601548738495875 0.9999999999999982
    vertex 3.9246507788688674 4.610103877122065 -1.8329782136561336e-15
    vertex 4.05517697108892 4.601548738495875 -1.8329782136561336e-15
  endloop
endfacet
facet normal -0.06540312923013873 -0.9978589232386038 -0.0
  outer loop
    vertex 3.9246507788688674 4.610103877122065 -1.8329782136561336e-15
    vertex 4.05517697108892 4.601548738495875 0.9999999999999982
    vertex 3.9246507788688674 4.610103877122065 0.9999999999999982
  endloop
endfacet
facet normal 0.0 -1.0 0.0
  outer loop
    vertex 3.9246507788688674 4.610103877122065 0.9999999999999982
    vertex -3.9657832228961847 4.610103877122065 -1.8329782136561336e-15
    vertex 3.9246507788688674 4.610103877122065 -1.8329782136561336e-15
  endloop
endfacet
facet normal 0.0 -1.0 0.0
  outer loop
    vertex -3.9657832228961847 4.610103877122065 -1.8329782136561336e-15
    vertex 3.9246507788688674 4.610103877122065 0.9999999999999982
    vertex -3.9657832228961847 4.610103877122065 0.9999999999999982
  endloop
endfacet
facet normal 0.06540312923013897 -0.9978589232386039 0.0
  outer loop
    vertex -3.9657832228961847 4.610103877122065 0.9999999999999982
    vertex -4.110610647662633 4.600611386192261 -1.8329782136561336e-15
    vertex -3.9657832228961847 4.610103877122065 -1.8329782136561336e-15
  endloop
endfacet
facet normal 0.06540312923013897 -0.9978589232386039 0.0
  outer loop
    vertex -4.110610647662633 4.600611386192261 -1.8329782136561336e-15
    vertex -3.9657832228961847 4.610103877122065 0.9999999999999982
    vertex -4.110610647662633 4.600611386192261 0.9999999999999982
  endloop
endfacet
facet normal 0.19509032201612986 -0.9807852804032302 0.0
  outer loop
    vertex -4.110610647662633 4.600611386192261 0.9999999999999982
    vertex -4.25296003503758 4.572296332554464 -1.8329782136561336e-15
    vertex -4.110610647662633 4.600611386192261 -1.8329782136561336e-15
  endloop
endfacet
facet normal 0.19509032201612986 -0.9807852804032302 0.0
  outer loop
    vertex -4.25296003503758 4.572296332554464 -1.8329782136561336e-15
    vertex -4.110610647662633 4.600611386192261 0.9999999999999982
    vertex -4.25296003503758 4.572296332554464 0.9999999999999982
  endloop
endfacet
facet normal 0.32143946530316214 -0.9469301294951055 0.0
  outer loop
    vertex -4.25296003503758 4.572296332554464 0.9999999999999982
    vertex -4.390395747536333 4.525643194626839 -1.8329782136561336e-15
    vertex -4.25296003503758 4.572296332554464 -1.8329782136561336e-15
  endloop
endfacet
facet normal 0.32143946530316214 -0.9469301294951055 0.0
  outer loop
    vertex -4.390395747536333 4.525643194626839 -1.8329782136561336e-15
    vertex -4.25296003503758 4.572296332554464 0.9999999999999982
    vertex -4.390395747536333 4.525643194626839 0.9999999999999982
  endloop
endfacet
facet normal 0.44228869021900236 -0.8968727415326878 0.0
  outer loop
    vertex -4.390395747536333 4.525643194626839 0.9999999999999982
    vertex -4.520566222013661 4.4614502205340205 -1.8329782136561336e-15
    vertex -4.390395747536333 4.525643194626839 -1.8329782136561336e-15
  endloop
endfacet
facet normal 0.44228869021900236 -0.8968727415326878 0.0
  outer loop
    vertex -4.520566222013661 4.4614502205340205 -1.8329782136561336e-15
    vertex -4.390395747536333 4.525643194626839 0.9999999999999982
    vertex -4.520566222013661 4.4614502205340205 0.9999999999999982
  endloop
endfacet
facet normal 0.6593458151000687 -0.7518398074789776 0.0
  outer loop
    vertex -4.641244205561182 4.380815769860391 0.9999999999999982
    vertex -4.75036486442214 4.28511952041307 -1.8329782136561336e-15
    vertex -4.641244205561182 4.380815769860391 -1.8329782136561336e-15
  endloop
endfacet
facet normal 0.6593458151000687 -0.7518398074789776 0.0
  outer loop
    vertex -4.75036486442214 4.28511952041307 -1.8329782136561336e-15
    vertex -4.641244205561182 4.380815769860391 0.9999999999999982
    vertex -4.75036486442214 4.28511952041307 0.9999999999999982
  endloop
endfacet
facet normal 0.5555702330196047 -0.8314696123025436 0.0
  outer loop
    vertex -4.520566222013661 4.4614502205340205 0.9999999999999982
    vertex -4.641244205561182 4.380815769860391 -1.8329782136561336e-15
    vertex -4.520566222013661 4.4614502205340205 -1.8329782136561336e-15
  endloop
endfacet
facet normal 0.5555702330196047 -0.8314696123025436 0.0
  outer loop
    vertex -4.641244205561182 4.380815769860391 -1.8329782136561336e-15
    vertex -4.520566222013661 4.4614502205340205 0.9999999999999982
    vertex -4.641244205561182 4.380815769860391 0.9999999999999982
  endloop
endfacet
facet normal 0.7518398074789759 -0.6593458151000706 0.0
  outer loop
    vertex -4.75036486442214 4.28511952041307 -1.8329782136561336e-15
    vertex -4.846061113869463 4.1759988615521095 0.9999999999999982
    vertex -4.846061113869463 4.1759988615521095 -1.8329782136561336e-15
  endloop
endfacet
facet normal 0.7518398074789759 -0.6593458151000706 0.0
  outer loop
    vertex -4.846061113869463 4.1759988615521095 0.9999999999999982
    vertex -4.75036486442214 4.28511952041307 -1.8329782136561336e-15
    vertex -4.75036486442214 4.28511952041307 0.9999999999999982
  endloop
endfacet
facet normal 0.8314696123025478 -0.5555702330195985 0.0
  outer loop
    vertex -4.846061113869463 4.1759988615521095 -1.8329782136561336e-15
    vertex -4.926695564543093 4.05532087800459 0.9999999999999982
    vertex -4.926695564543093 4.05532087800459 -1.8329782136561336e-15
  endloop
endfacet
facet normal 0.8314696123025478 -0.5555702330195985 0.0
  outer loop
    vertex -4.926695564543093 4.05532087800459 0.9999999999999982
    vertex -4.846061113869463 4.1759988615521095 -1.8329782136561336e-15
    vertex -4.846061113869463 4.1759988615521095 0.9999999999999982
  endloop
endfacet
facet normal 0.946930129495107 -0.3214394653031575 0.0
  outer loop
    vertex -4.990888538635912 3.9251504035272604 -1.8329782136561336e-15
    vertex -5.037541676563535 3.787714691028508 0.9999999999999982
    vertex -5.037541676563535 3.787714691028508 -1.8329782136561336e-15
  endloop
endfacet
facet normal 0.946930129495107 -0.3214394653031575 0.0
  outer loop
    vertex -5.037541676563535 3.787714691028508 0.9999999999999982
    vertex -4.990888538635912 3.9251504035272604 -1.8329782136561336e-15
    vertex -4.990888538635912 3.9251504035272604 0.9999999999999982
  endloop
endfacet
facet normal 0.896872741532687 -0.44228869021900385 0.0
  outer loop
    vertex -4.926695564543093 4.05532087800459 -1.8329782136561336e-15
    vertex -4.990888538635912 3.9251504035272604 0.9999999999999982
    vertex -4.990888538635912 3.9251504035272604 -1.8329782136561336e-15
  endloop
endfacet
facet normal 0.896872741532687 -0.44228869021900385 0.0
  outer loop
    vertex -4.990888538635912 3.9251504035272604 0.9999999999999982
    vertex -4.926695564543093 4.05532087800459 -1.8329782136561336e-15
    vertex -4.926695564543093 4.05532087800459 0.9999999999999982
  endloop
endfacet
facet normal -0.4422886902190035 -0.8968727415326871 -0.0
  outer loop
    vertex 4.424650778868869 4.476129280906505 0.9999999999999982
    vertex 4.307334211233957 4.533983409633353 -1.8329782136561336e-15
    vertex 4.424650778868869 4.476129280906505 -1.8329782136561336e-15
  endloop
endfacet
facet normal -0.4422886902190035 -0.8968727415326871 -0.0
  outer loop
    vertex 4.307334211233957 4.533983409633353 -1.8329782136561336e-15
    vertex 4.424650778868869 4.476129280906505 0.9999999999999982
    vertex 4.307334211233957 4.533983409633353 0.9999999999999982
  endloop
endfacet
facet normal 0.98078528040323 -0.19509032201613138 0.0
  outer loop
    vertex -5.037541676563535 3.787714691028508 -1.8329782136561336e-15
    vertex -5.065856730201331 3.6453653036535623 0.9999999999999982
    vertex -5.065856730201331 3.6453653036535623 -1.8329782136561336e-15
  endloop
endfacet
facet normal 0.98078528040323 -0.19509032201613138 0.0
  outer loop
    vertex -5.065856730201331 3.6453653036535623 0.9999999999999982
    vertex -5.037541676563535 3.787714691028508 -1.8329782136561336e-15
    vertex -5.037541676563535 3.787714691028508 0.9999999999999982
  endloop
endfacet
facet normal -0.5555702330196003 -0.8314696123025466 -0.0
  outer loop
    vertex 4.533412207877589 4.403457217413302 0.9999999999999982
    vertex 4.424650778868869 4.476129280906505 -1.8329782136561336e-15
    vertex 4.533412207877589 4.403457217413302 -1.8329782136561336e-15
  endloop
endfacet
facet normal -0.5555702330196003 -0.8314696123025466 -0.0
  outer loop
    vertex 4.424650778868869 4.476129280906505 -1.8329782136561336e-15
    vertex 4.533412207877589 4.403457217413302 0.9999999999999982
    vertex 4.424650778868869 4.476129280906505 0.9999999999999982
  endloop
endfacet
facet normal -0.6593458151000707 -0.7518398074789757 -0.0
  outer loop
    vertex 4.631757560055416 4.317210658308612 0.9999999999999982
    vertex 4.533412207877589 4.403457217413302 -1.8329782136561336e-15
    vertex 4.631757560055416 4.317210658308612 -1.8329782136561336e-15
  endloop
endfacet
facet normal -0.6593458151000707 -0.7518398074789757 -0.0
  outer loop
    vertex 4.533412207877589 4.403457217413302 -1.8329782136561336e-15
    vertex 4.631757560055416 4.317210658308612 0.9999999999999982
    vertex 4.533412207877589 4.403457217413302 0.9999999999999982
  endloop
endfacet
facet normal 0.9978589232386034 -0.06540312923014645 0.0
  outer loop
    vertex -5.065856730201331 3.6453653036535623 -1.8329782136561336e-15
    vertex -5.0753492211311375 3.5005378788871138 0.9999999999999982
    vertex -5.0753492211311375 3.5005378788871138 -1.8329782136561336e-15
  endloop
endfacet
facet normal 0.9978589232386034 -0.06540312923014645 0.0
  outer loop
    vertex -5.0753492211311375 3.5005378788871138 0.9999999999999982
    vertex -5.065856730201331 3.6453653036535623 -1.8329782136561336e-15
    vertex -5.065856730201331 3.6453653036535623 0.9999999999999982
  endloop
endfacet
facet normal 0.0 0.0 -1.0
  outer loop
    vertex -3.401306614025397 1.0159705349808907 0.4999999999999983
    vertex -3.401306614025398 -0.7957627807367564 0.4999999999999983
    vertex -3.5205662220136587 0.11010387712206546 0.4999999999999983
  endloop
endfacet
facet normal 0.0 0.0 -1.0
  outer loop
    vertex -3.401306614025398 -0.7957627807367564 0.4999999999999983
    vertex -3.401306614025397 1.0159705349808907 0.4999999999999983
    vertex -3.0516551352591947 -1.6398961228779325 0.4999999999999983
  endloop
endfacet
facet normal 0.0 0.0 -1.0
  outer loop
    vertex -3.0516551352591947 -1.6398961228779325 0.4999999999999983
    vertex -3.401306614025397 1.0159705349808907 0.4999999999999983
    vertex -3.0516551352591925 1.860103877122068 0.4999999999999983
  endloop
endfacet
facet normal 0.0 0.0 -1.0
  outer loop
    vertex -3.0516551352591947 -1.6398961228779325 0.4999999999999983
    vertex -3.0516551352591925 1.860103877122068 0.4999999999999983
    vertex -2.495439956166575 -2.3647698570308506 0.4999999999999983
  endloop
endfacet
facet normal 0.0 0.0 -1.0
  outer loop
    vertex -2.495439956166575 -2.3647698570308506 0.4999999999999983
    vertex -3.0516551352591925 1.860103877122068 0.4999999999999983
    vertex -2.4954399561665737 2.5849776112749825 0.4999999999999983
  endloop
endfacet
facet normal 0.0 0.0 -1.0
  outer loop
    vertex -2.495439956166575 -2.3647698570308506 0.4999999999999983
    vertex -2.4954399561665737 2.5849776112749825 0.4999999999999983
    vertex -1.77056622201366 -2.920985036123469 0.4999999999999983
  endloop
endfacet
facet normal 0.0 0.0 -1.0
  outer loop
    vertex -1.77056622201366 -2.920985036123469 0.4999999999999983
    vertex -2.4954399561665737 2.5849776112749825 0.4999999999999983
    vertex -1.7705662220136573 3.1411927903676 0.4999999999999983
  endloop
endfacet
facet normal 0.0 0.0 -1.0
  outer loop
    vertex -1.77056622201366 -2.920985036123469 0.4999999999999983
    vertex -1.7705662220136573 3.1411927903676 0.4999999999999983
    vertex -0.9264328798724839 -3.2706365148896737 0.4999999999999983
  endloop
endfacet
facet normal 0.0 0.0 -1.0
  outer loop
    vertex -0.9264328798724839 -3.2706365148896737 0.4999999999999983
    vertex -1.7705662220136573 3.1411927903676 0.4999999999999983
    vertex -0.9264328798724799 3.490844269133804 0.4999999999999983
  endloop
endfacet
facet normal 0.0 0.0 -1.0
  outer loop
    vertex -0.9264328798724839 -3.2706365148896737 0.4999999999999983
    vertex -0.9264328798724799 3.490844269133804 0.4999999999999983
    vertex -0.020566222013658094 -3.389896122877935 0.4999999999999983
  endloop
endfacet
facet normal 0.0 0.0 -1.0
  outer loop
    vertex -0.020566222013658094 -3.389896122877935 0.4999999999999983
    vertex -0.9264328798724799 3.490844269133804 0.4999999999999983
    vertex -0.020566222013658094 3.610103877122065 0.4999999999999983
  endloop
endfacet
facet normal 0.0 0.0 -1.0
  outer loop
    vertex -0.020566222013658094 -3.389896122877935 0.4999999999999983
    vertex -0.020566222013658094 3.610103877122065 0.4999999999999983
    vertex 0.8853004358451649 3.490844269133804 0.4999999999999983
  endloop
endfacet
facet normal 0.0 0.0 -1.0
  outer loop
    vertex -0.020566222013658094 -3.389896122877935 0.4999999999999983
    vertex 0.8853004358451649 3.490844269133804 0.4999999999999983
    vertex 0.8853004358451637 -3.2706365148896737 0.4999999999999983
  endloop
endfacet
facet normal 0.0 0.0 -1.0
  outer loop
    vertex 0.8853004358451637 -3.2706365148896737 0.4999999999999983
    vertex 0.8853004358451649 3.490844269133804 0.4999999999999983
    vertex 1.7294337779863411 -2.9209850361234713 0.4999999999999983
  endloop
endfacet
facet normal 0.0 0.0 -1.0
  outer loop
    vertex 1.7294337779863411 -2.9209850361234713 0.4999999999999983
    vertex 0.8853004358451649 3.490844269133804 0.4999999999999983
    vertex 1.7294337779863433 3.1411927903676 0.4999999999999983
  endloop
endfacet
facet normal 0.0 0.0 -1.0
  outer loop
    vertex 1.7294337779863411 -2.9209850361234713 0.4999999999999983
    vertex 1.7294337779863433 3.1411927903676 0.4999999999999983
    vertex 2.4543075121392577 -2.3647698570308515 0.4999999999999983
  endloop
endfacet
facet normal 0.0 0.0 -1.0
  outer loop
    vertex 2.4543075121392577 -2.3647698570308515 0.4999999999999983
    vertex 1.7294337779863433 3.1411927903676 0.4999999999999983
    vertex 2.4543075121392577 2.5849776112749825 0.4999999999999983
  endloop
endfacet
facet normal 0.0 0.0 -1.0
  outer loop
    vertex 2.4543075121392577 -2.3647698570308515 0.4999999999999983
    vertex 2.4543075121392577 2.5849776112749825 0.4999999999999983
    vertex 3.0105226912318774 1.8601038771220635 0.4999999999999983
  endloop
endfacet
facet normal 0.0 0.0 -1.0
  outer loop
    vertex 2.4543075121392577 -2.3647698570308515 0.4999999999999983
    vertex 3.0105226912318774 1.8601038771220635 0.4999999999999983
    vertex 3.0105226912318765 -1.639896122877935 0.4999999999999983
  endloop
endfacet
facet normal 0.0 0.0 -1.0
  outer loop
    vertex 3.0105226912318765 -1.639896122877935 0.4999999999999983
    vertex 3.0105226912318774 1.8601038771220635 0.4999999999999983
    vertex 3.3601741699980807 -0.7957627807367587 0.4999999999999983
  endloop
endfacet
facet normal 0.0 0.0 -1.0
  outer loop
    vertex 3.3601741699980807 -0.7957627807367587 0.4999999999999983
    vertex 3.0105226912318774 1.8601038771220635 0.4999999999999983
    vertex 3.3601741699980807 1.0159705349808874 0.4999999999999983
  endloop
endfacet
facet normal 0.0 0.0 -1.0
  outer loop
    vertex 3.3601741699980807 -0.7957627807367587 0.4999999999999983
    vertex 3.3601741699980807 1.0159705349808874 0.4999999999999983
    vertex 3.4794337779863413 0.11010387712206432 0.4999999999999983
  endloop
endfacet
facet normal -0.13052619222005132 0.9914448613738104 0.0
  outer loop
    vertex -0.9264328798724799 3.490844269133804 0.9999999999999982
    vertex -0.020566222013658094 3.610103877122065 0.4999999999999983
    vertex -0.9264328798724799 3.490844269133804 0.4999999999999983
  endloop
endfacet
facet normal -0.13052619222005132 0.9914448613738104 0.0
  outer loop
    vertex -0.020566222013658094 3.610103877122065 0.4999999999999983
    vertex -0.9264328798724799 3.490844269133804 0.9999999999999982
    vertex -0.020566222013658094 3.610103877122065 0.9999999999999982
  endloop
endfacet
facet normal 0.1305261922200516 0.9914448613738104 0.0
  outer loop
    vertex -0.020566222013658094 3.610103877122065 0.9999999999999982
    vertex 0.8853004358451649 3.490844269133804 0.4999999999999983
    vertex -0.020566222013658094 3.610103877122065 0.4999999999999983
  endloop
endfacet
facet normal 0.1305261922200516 0.9914448613738104 0.0
  outer loop
    vertex 0.8853004358451649 3.490844269133804 0.4999999999999983
    vertex -0.020566222013658094 3.610103877122065 0.9999999999999982
    vertex 0.8853004358451649 3.490844269133804 0.9999999999999982
  endloop
endfacet
facet normal 0.3826834323650903 0.9238795325112865 0.0
  outer loop
    vertex 0.8853004358451649 3.490844269133804 0.9999999999999982
    vertex 1.7294337779863433 3.1411927903676 0.4999999999999983
    vertex 0.8853004358451649 3.490844269133804 0.4999999999999983
  endloop
endfacet
facet normal 0.3826834323650903 0.9238795325112865 0.0
  outer loop
    vertex 1.7294337779863433 3.1411927903676 0.4999999999999983
    vertex 0.8853004358451649 3.490844269133804 0.9999999999999982
    vertex 1.7294337779863433 3.1411927903676 0.9999999999999982
  endloop
endfacet
facet normal 0.6087614290087205 0.7933533402912353 0.0
  outer loop
    vertex 1.7294337779863433 3.1411927903676 0.9999999999999982
    vertex 2.4543075121392577 2.5849776112749825 0.4999999999999983
    vertex 1.7294337779863433 3.1411927903676 0.4999999999999983
  endloop
endfacet
facet normal 0.6087614290087205 0.7933533402912353 0.0
  outer loop
    vertex 2.4543075121392577 2.5849776112749825 0.4999999999999983
    vertex 1.7294337779863433 3.1411927903676 0.9999999999999982
    vertex 2.4543075121392577 2.5849776112749825 0.9999999999999982
  endloop
endfacet
facet normal 0.7933533402912353 0.6087614290087204 0.0
  outer loop
    vertex 2.4543075121392577 2.5849776112749825 0.4999999999999983
    vertex 3.0105226912318774 1.8601038771220635 0.9999999999999982
    vertex 3.0105226912318774 1.8601038771220635 0.4999999999999983
  endloop
endfacet
facet normal 0.7933533402912353 0.6087614290087204 0.0
  outer loop
    vertex 3.0105226912318774 1.8601038771220635 0.9999999999999982
    vertex 2.4543075121392577 2.5849776112749825 0.4999999999999983
    vertex 2.4543075121392577 2.5849776112749825 0.9999999999999982
  endloop
endfacet
facet normal 0.923879532511287 0.3826834323650896 0.0
  outer loop
    vertex 3.0105226912318774 1.8601038771220635 0.4999999999999983
    vertex 3.3601741699980807 1.0159705349808874 0.9999999999999982
    vertex 3.3601741699980807 1.0159705349808874 0.4999999999999983
  endloop
endfacet
facet normal 0.923879532511287 0.3826834323650896 0.0
  outer loop
    vertex 3.3601741699980807 1.0159705349808874 0.9999999999999982
    vertex 3.0105226912318774 1.8601038771220635 0.4999999999999983
    vertex 3.0105226912318774 1.8601038771220635 0.9999999999999982
  endloop
endfacet
facet normal 0.9914448613738105 0.13052619222005116 0.0
  outer loop
    vertex 3.3601741699980807 1.0159705349808874 0.4999999999999983
    vertex 3.4794337779863413 0.11010387712206432 0.9999999999999982
    vertex 3.4794337779863413 0.11010387712206432 0.4999999999999983
  endloop
endfacet
facet normal 0.9914448613738105 0.13052619222005116 0.0
  outer loop
    vertex 3.4794337779863413 0.11010387712206432 0.9999999999999982
    vertex 3.3601741699980807 1.0159705349808874 0.4999999999999983
    vertex 3.3601741699980807 1.0159705349808874 0.9999999999999982
  endloop
endfacet
facet normal 0.9914448613738105 -0.13052619222005107 0.0
  outer loop
    vertex 3.4794337779863413 0.11010387712206432 0.4999999999999983
    vertex 3.3601741699980807 -0.7957627807367587 0.9999999999999982
    vertex 3.3601741699980807 -0.7957627807367587 0.4999999999999983
  endloop
endfacet
facet normal 0.9914448613738105 -0.13052619222005107 0.0
  outer loop
    vertex 3.3601741699980807 -0.7957627807367587 0.9999999999999982
    vertex 3.4794337779863413 0.11010387712206432 0.4999999999999983
    vertex 3.4794337779863413 0.11010387712206432 0.9999999999999982
  endloop
endfacet
facet normal 0.9238795325112865 -0.3826834323650906 0.0
  outer loop
    vertex 3.3601741699980807 -0.7957627807367587 0.4999999999999983
    vertex 3.0105226912318765 -1.639896122877935 0.9999999999999982
    vertex 3.0105226912318765 -1.639896122877935 0.4999999999999983
  endloop
endfacet
facet normal 0.9238795325112865 -0.3826834323650906 0.0
  outer loop
    vertex 3.0105226912318765 -1.639896122877935 0.9999999999999982
    vertex 3.3601741699980807 -0.7957627807367587 0.4999999999999983
    vertex 3.3601741699980807 -0.7957627807367587 0.9999999999999982
  endloop
endfacet
facet normal 0.7933533402912353 -0.6087614290087205 0.0
  outer loop
    vertex 3.0105226912318765 -1.639896122877935 0.4999999999999983
    vertex 2.4543075121392577 -2.3647698570308515 0.9999999999999982
    vertex 2.4543075121392577 -2.3647698570308515 0.4999999999999983
  endloop
endfacet
facet normal 0.7933533402912353 -0.6087614290087205 0.0
  outer loop
    vertex 2.4543075121392577 -2.3647698570308515 0.9999999999999982
    vertex 3.0105226912318765 -1.639896122877935 0.4999999999999983
    vertex 3.0105226912318765 -1.639896122877935 0.9999999999999982
  endloop
endfacet
facet normal 0.6087614290087208 -0.7933533402912353 0.0
  outer loop
    vertex 2.4543075121392577 -2.3647698570308515 0.9999999999999982
    vertex 1.7294337779863411 -2.9209850361234713 0.4999999999999983
    vertex 2.4543075121392577 -2.3647698570308515 0.4999999999999983
  endloop
endfacet
facet normal 0.6087614290087208 -0.7933533402912353 0.0
  outer loop
    vertex 1.7294337779863411 -2.9209850361234713 0.4999999999999983
    vertex 2.4543075121392577 -2.3647698570308515 0.9999999999999982
    vertex 1.7294337779863411 -2.9209850361234713 0.9999999999999982
  endloop
endfacet
facet normal 0.3826834323650894 -0.923879532511287 0.0
  outer loop
    vertex 1.7294337779863411 -2.9209850361234713 0.9999999999999982
    vertex 0.8853004358451637 -3.2706365148896737 0.4999999999999983
    vertex 1.7294337779863411 -2.9209850361234713 0.4999999999999983
  endloop
endfacet
facet normal 0.3826834323650894 -0.923879532511287 0.0
  outer loop
    vertex 0.8853004358451637 -3.2706365148896737 0.4999999999999983
    vertex 1.7294337779863411 -2.9209850361234713 0.9999999999999982
    vertex 0.8853004358451637 -3.2706365148896737 0.9999999999999982
  endloop
endfacet
facet normal 0.13052619222005177 -0.9914448613738104 0.0
  outer loop
    vertex 0.8853004358451637 -3.2706365148896737 0.9999999999999982
    vertex -0.020566222013658094 -3.389896122877935 0.4999999999999983
    vertex 0.8853004358451637 -3.2706365148896737 0.4999999999999983
  endloop
endfacet
facet normal 0.13052619222005177 -0.9914448613738104 0.0
  outer loop
    vertex -0.020566222013658094 -3.389896122877935 0.4999999999999983
    vertex 0.8853004358451637 -3.2706365148896737 0.9999999999999982
    vertex -0.020566222013658094 -3.389896122877935 0.9999999999999982
  endloop
endfacet
facet normal -0.13052619222005196 -0.9914448613738105 -0.0
  outer loop
    vertex -0.020566222013658094 -3.389896122877935 0.9999999999999982
    vertex -0.9264328798724839 -3.2706365148896737 0.4999999999999983
    vertex -0.020566222013658094 -3.389896122877935 0.4999999999999983
  endloop
endfacet
facet normal -0.13052619222005196 -0.9914448613738105 -0.0
  outer loop
    vertex -0.9264328798724839 -3.2706365148896737 0.4999999999999983
    vertex -0.020566222013658094 -3.389896122877935 0.9999999999999982
    vertex -0.9264328798724839 -3.2706365148896737 0.9999999999999982
  endloop
endfacet
facet normal -0.3826834323650904 -0.9238795325112866 -0.0
  outer loop
    vertex -0.9264328798724839 -3.2706365148896737 0.9999999999999982
    vertex -1.77056622201366 -2.920985036123469 0.4999999999999983
    vertex -0.9264328798724839 -3.2706365148896737 0.4999999999999983
  endloop
endfacet
facet normal -0.3826834323650904 -0.9238795325112866 -0.0
  outer loop
    vertex -1.77056622201366 -2.920985036123469 0.4999999999999983
    vertex -0.9264328798724839 -3.2706365148896737 0.9999999999999982
    vertex -1.77056622201366 -2.920985036123469 0.9999999999999982
  endloop
endfacet
facet normal -0.6087614290087213 -0.7933533402912347 -0.0
  outer loop
    vertex -1.77056622201366 -2.920985036123469 0.9999999999999982
    vertex -2.495439956166575 -2.3647698570308506 0.4999999999999983
    vertex -1.77056622201366 -2.920985036123469 0.4999999999999983
  endloop
endfacet
facet normal -0.6087614290087213 -0.7933533402912347 -0.0
  outer loop
    vertex -2.495439956166575 -2.3647698570308506 0.4999999999999983
    vertex -1.77056622201366 -2.920985036123469 0.9999999999999982
    vertex -2.495439956166575 -2.3647698570308506 0.9999999999999982
  endloop
endfacet
facet normal -0.7933533402912356 -0.6087614290087203 -0.0
  outer loop
    vertex -3.0516551352591947 -1.6398961228779325 0.9999999999999982
    vertex -2.495439956166575 -2.3647698570308506 0.4999999999999983
    vertex -2.495439956166575 -2.3647698570308506 0.9999999999999982
  endloop
endfacet
facet normal -0.7933533402912356 -0.6087614290087203 -0.0
  outer loop
    vertex -2.495439956166575 -2.3647698570308506 0.4999999999999983
    vertex -3.0516551352591947 -1.6398961228779325 0.9999999999999982
    vertex -3.0516551352591947 -1.6398961228779325 0.4999999999999983
  endloop
endfacet
facet normal -0.9238795325112867 -0.38268343236508967 -0.0
  outer loop
    vertex -3.401306614025398 -0.7957627807367564 0.9999999999999982
    vertex -3.0516551352591947 -1.6398961228779325 0.4999999999999983
    vertex -3.0516551352591947 -1.6398961228779325 0.9999999999999982
  endloop
endfacet
facet normal -0.9238795325112867 -0.38268343236508967 -0.0
  outer loop
    vertex -3.0516551352591947 -1.6398961228779325 0.4999999999999983
    vertex -3.401306614025398 -0.7957627807367564 0.9999999999999982
    vertex -3.401306614025398 -0.7957627807367564 0.4999999999999983
  endloop
endfacet
facet normal -0.9914448613738104 -0.1305261922200513 -0.0
  outer loop
    vertex -3.5205662220136587 0.11010387712206546 0.9999999999999982
    vertex -3.401306614025398 -0.7957627807367564 0.4999999999999983
    vertex -3.401306614025398 -0.7957627807367564 0.9999999999999982
  endloop
endfacet
facet normal -0.9914448613738104 -0.1305261922200513 -0.0
  outer loop
    vertex -3.401306614025398 -0.7957627807367564 0.4999999999999983
    vertex -3.5205662220136587 0.11010387712206546 0.9999999999999982
    vertex -3.5205662220136587 0.11010387712206546 0.4999999999999983
  endloop
endfacet
facet normal -0.9914448613738105 0.1305261922200521 0.0
  outer loop
    vertex -3.401306614025397 1.0159705349808907 0.9999999999999982
    vertex -3.5205662220136587 0.11010387712206546 0.4999999999999983
    vertex -3.5205662220136587 0.11010387712206546 0.9999999999999982
  endloop
endfacet
facet normal -0.9914448613738105 0.1305261922200521 0.0
  outer loop
    vertex -3.5205662220136587 0.11010387712206546 0.4999999999999983
    vertex -3.401306614025397 1.0159705349808907 0.9999999999999982
    vertex -3.401306614025397 1.0159705349808907 0.4999999999999983
  endloop
endfacet
facet normal -0.9238795325112865 0.38268343236509067 0.0
  outer loop
    vertex -3.0516551352591925 1.860103877122068 0.9999999999999982
    vertex -3.401306614025397 1.0159705349808907 0.4999999999999983
    vertex -3.401306614025397 1.0159705349808907 0.9999999999999982
  endloop
endfacet
facet normal -0.9238795325112865 0.38268343236509067 0.0
  outer loop
    vertex -3.401306614025397 1.0159705349808907 0.4999999999999983
    vertex -3.0516551352591925 1.860103877122068 0.9999999999999982
    vertex -3.0516551352591925 1.860103877122068 0.4999999999999983
  endloop
endfacet
facet normal -0.7933533402912348 0.6087614290087212 0.0
  outer loop
    vertex -2.4954399561665737 2.5849776112749825 0.9999999999999982
    vertex -3.0516551352591925 1.860103877122068 0.4999999999999983
    vertex -3.0516551352591925 1.860103877122068 0.9999999999999982
  endloop
endfacet
facet normal -0.7933533402912348 0.6087614290087212 0.0
  outer loop
    vertex -3.0516551352591925 1.860103877122068 0.4999999999999983
    vertex -2.4954399561665737 2.5849776112749825 0.9999999999999982
    vertex -2.4954399561665737 2.5849776112749825 0.4999999999999983
  endloop
endfacet
facet normal -0.6087614290087203 0.7933533402912356 0.0
  outer loop
    vertex -2.4954399561665737 2.5849776112749825 0.9999999999999982
    vertex -1.7705662220136573 3.1411927903676 0.4999999999999983
    vertex -2.4954399561665737 2.5849776112749825 0.4999999999999983
  endloop
endfacet
facet normal -0.6087614290087203 0.7933533402912356 0.0
  outer loop
    vertex -1.7705662220136573 3.1411927903676 0.4999999999999983
    vertex -2.4954399561665737 2.5849776112749825 0.9999999999999982
    vertex -1.7705662220136573 3.1411927903676 0.9999999999999982
  endloop
endfacet
facet normal -0.38268343236508967 0.9238795325112868 0.0
  outer loop
    vertex -1.7705662220136573 3.1411927903676 0.9999999999999982
    vertex -0.9264328798724799 3.490844269133804 0.4999999999999983
    vertex -1.7705662220136573 3.1411927903676 0.4999999999999983
  endloop
endfacet
facet normal -0.38268343236508967 0.9238795325112868 0.0
  outer loop
    vertex -0.9264328798724799 3.490844269133804 0.4999999999999983
    vertex -1.7705662220136573 3.1411927903676 0.9999999999999982
    vertex -0.9264328798724799 3.490844269133804 0.9999999999999982
  endloop
endfacet
facet normal 0.0 0.0 -1.0
  outer loop
    vertex 4.34099890066284 -3.817293249981711 1.9999999999999982
    vertex -0.6590010993371611 -6.317293249981711 1.9999999999999982
    vertex -0.6590010993371611 -3.817293249981711 1.9999999999999982
  endloop
endfacet
facet normal 0.0 0.0 -1.0
  outer loop
    vertex -0.6590010993371611 -6.317293249981711 1.9999999999999982
    vertex 4.34099890066284 -3.817293249981711 1.9999999999999982
    vertex 4.34099890066284 -6.317293249981711 1.9999999999999982
  endloop
endfacet
facet normal 0.0 1.0 0.0
  outer loop
    vertex -0.6590010993371611 -6.317293249981711 1.9999999999999982
    vertex 4.34099890066284 -6.317293249981711 0.9999999999999982
    vertex -0.6590010993371611 -6.317293249981711 0.9999999999999982
  endloop
endfacet
facet normal 0.0 1.0 0.0
  outer loop
    vertex 4.34099890066284 -6.317293249981711 0.9999999999999982
    vertex -0.6590010993371611 -6.317293249981711 1.9999999999999982
    vertex 4.34099890066284 -6.317293249981711 1.9999999999999982
  endloop
endfacet
facet normal 1.0 0.0 0.0
  outer loop
    vertex -0.6590010993371611 -3.817293249981711 0.9999999999999982
    vertex -0.6590010993371611 -6.317293249981711 1.9999999999999982
    vertex -0.6590010993371611 -6.317293249981711 0.9999999999999982
  endloop
endfacet
facet normal 1.0 0.0 0.0
  outer loop
    vertex -0.6590010993371611 -6.317293249981711 1.9999999999999982
    vertex -0.6590010993371611 -3.817293249981711 0.9999999999999982
    vertex -0.6590010993371611 -3.817293249981711 1.9999999999999982
  endloop
endfacet
facet normal 0.0 -1.0 0.0
  outer loop
    vertex 4.34099890066284 -3.817293249981711 1.9999999999999982
    vertex -0.6590010993371611 -3.817293249981711 0.9999999999999982
    vertex 4.34099890066284 -3.817293249981711 0.9999999999999982
  endloop
endfacet
facet normal 0.0 -1.0 0.0
  outer loop
    vertex -0.6590010993371611 -3.817293249981711 0.9999999999999982
    vertex 4.34099890066284 -3.817293249981711 1.9999999999999982
    vertex -0.6590010993371611 -3.817293249981711 1.9999999999999982
  endloop
endfacet
facet normal -1.0 -0.0 -0.0
  outer loop
    vertex 4.34099890066284 -3.817293249981711 1.9999999999999982
    vertex 4.34099890066284 -6.317293249981711 0.9999999999999982
    vertex 4.34099890066284 -6.317293249981711 1.9999999999999982
  endloop
endfacet
facet normal -1.0 -0.0 -0.0
  outer loop
    vertex 4.34099890066284 -6.317293249981711 0.9999999999999982
    vertex 4.34099890066284 -3.817293249981711 1.9999999999999982
    vertex 4.34099890066284 -3.817293249981711 0.9999999999999982
  endloop
endfacet
facet normal 1.0 0.0 0.0
  outer loop
    vertex -1.2907225893943381 -5.02101320980196 0.5999999999999982
    vertex -1.2907225893943381 -6.039288449079781 0.9999999999999982
    vertex -1.2907225893943381 -6.039288449079781 0.5999999999999982
  endloop
endfacet
facet normal 1.0 0.0 0.0
  outer loop
    vertex -1.2907225893943381 -6.039288449079781 0.9999999999999982
    vertex -1.2907225893943381 -5.02101320980196 0.5999999999999982
    vertex -1.2907225893943381 -5.02101320980196 0.9999999999999982
  endloop
endfacet
facet normal -1.4099832412739444e-15 -1.0 -0.0
  outer loop
    vertex -1.2907225893943381 -6.039288449079781 0.9999999999999982
    vertex -2.2007225893943385 -6.03928844907978 0.5999999999999982
    vertex -1.2907225893943381 -6.039288449079781 0.5999999999999982
  endloop
endfacet
facet normal -1.4099832412739444e-15 -1.0 -0.0
  outer loop
    vertex -2.2007225893943385 -6.03928844907978 0.5999999999999982
    vertex -1.2907225893943381 -6.039288449079781 0.9999999999999982
    vertex -2.2007225893943385 -6.03928844907978 0.9999999999999982
  endloop
endfacet
facet normal 1.0 8.387566719481642e-15 0.0
  outer loop
    vertex -2.2007225893943385 -6.03928844907978 0.5999999999999982
    vertex -2.2007225893943376 -6.140150829440869 0.9999999999999982
    vertex -2.2007225893943376 -6.140150829440869 0.5999999999999982
  endloop
endfacet
facet normal 1.0 8.387566719481642e-15 0.0
  outer loop
    vertex -2.2007225893943376 -6.140150829440869 0.9999999999999982
    vertex -2.2007225893943385 -6.03928844907978 0.5999999999999982
    vertex -2.2007225893943385 -6.03928844907978 0.9999999999999982
  endloop
endfacet
facet normal -1.0 0.0 0.0
  outer loop
    vertex -4.300244328394335 -3.840150829940864 0.9999999999999982
    vertex -4.300244328394335 -6.140150829440871 0.5999999999999982
    vertex -4.300244328394335 -6.140150829440871 0.9999999999999982
  endloop
endfacet
facet normal -1.0 0.0 0.0
  outer loop
    vertex -4.300244328394335 -6.140150829440871 0.5999999999999982
    vertex -4.300244328394335 -3.840150829940864 0.9999999999999982
    vertex -4.300244328394335 -3.840150829940864 0.5999999999999982
  endloop
endfacet
facet normal 0.0 1.0 0.0
  outer loop
    vertex -2.8007225893943386 -3.3401508299408635 0.9999999999999982
    vertex -2.6007225893943375 -3.3401508299408635 0.5999999999999982
    vertex -2.8007225893943386 -3.3401508299408635 0.5999999999999982
  endloop
endfacet
facet normal 0.0 1.0 0.0
  outer loop
    vertex -2.6007225893943375 -3.3401508299408635 0.5999999999999982
    vertex -2.8007225893943386 -3.3401508299408635 0.9999999999999982
    vertex -2.6007225893943375 -3.3401508299408635 0.9999999999999982
  endloop
endfacet
facet normal 1.0 0.0 0.0
  outer loop
    vertex -2.6007225893943375 -3.3401508299408635 0.5999999999999982
    vertex -2.6007225893943375 -3.840150829940864 0.9999999999999982
    vertex -2.6007225893943375 -3.840150829940864 0.5999999999999982
  endloop
endfacet
facet normal 1.0 0.0 0.0
  outer loop
    vertex -2.6007225893943375 -3.840150829940864 0.9999999999999982
    vertex -2.6007225893943375 -3.3401508299408635 0.5999999999999982
    vertex -2.6007225893943375 -3.3401508299408635 0.9999999999999982
  endloop
endfacet
facet normal 0.0 1.0 0.0
  outer loop
    vertex -2.6007225893943375 -3.840150829940864 0.9999999999999982
    vertex -2.2007225893943385 -3.840150829940864 0.5999999999999982
    vertex -2.6007225893943375 -3.840150829940864 0.5999999999999982
  endloop
endfacet
facet normal 0.0 1.0 0.0
  outer loop
    vertex -2.2007225893943385 -3.840150829940864 0.5999999999999982
    vertex -2.6007225893943375 -3.840150829940864 0.9999999999999982
    vertex -2.2007225893943385 -3.840150829940864 0.9999999999999982
  endloop
endfacet
facet normal 1.0 -6.352643848119245e-16 7.363158298790358e-32
  outer loop
    vertex -2.2007225893943385 -3.840150829940864 0.5999999999999982
    vertex -2.200722589394339 -5.02101320980196 0.9999999999999982
    vertex -2.200722589394339 -5.02101320980196 0.5999999999999982
  endloop
endfacet
facet normal 1.0 -6.352643848119245e-16 7.363158298790358e-32
  outer loop
    vertex -2.200722589394339 -5.02101320980196 0.9999999999999982
    vertex -2.2007225893943385 -3.840150829940864 0.5999999999999982
    vertex -2.2007225893943385 -3.840150829940864 0.9999999999999982
  endloop
endfacet
facet normal 0.0 1.0 0.0
  outer loop
    vertex -2.200722589394339 -5.02101320980196 0.9999999999999982
    vertex -1.2907225893943381 -5.02101320980196 0.5999999999999982
    vertex -2.200722589394339 -5.02101320980196 0.5999999999999982
  endloop
endfacet
facet normal 0.0 1.0 0.0
  outer loop
    vertex -1.2907225893943381 -5.02101320980196 0.5999999999999982
    vertex -2.200722589394339 -5.02101320980196 0.9999999999999982
    vertex -1.2907225893943381 -5.02101320980196 0.9999999999999982
  endloop
endfacet
facet normal 0.0 1.0 0.0
  outer loop
    vertex -3.2507225893943374 -3.3401508299408635 1.819999999749999
    vertex -2.8007225893943386 -3.3401508299408635 0.9999999999999982
    vertex -4.300244328394335 -3.3401508299408635 0.9999999999999982
  endloop
endfacet
facet normal 0.0 1.0 0.0
  outer loop
    vertex -2.8007225893943386 -3.3401508299408635 0.9999999999999982
    vertex -3.2507225893943374 -3.3401508299408635 1.819999999749999
    vertex -2.8007225893943386 -3.3401508299408635 1.819999999749999
  endloop
endfacet
facet normal 0.0 0.0 1.0
  outer loop
    vertex -3.250722589394337 -3.840150829940864 1.819999999749999
    vertex -2.8007225893943386 -3.3401508299408635 1.819999999749999
    vertex -3.2507225893943374 -3.3401508299408635 1.819999999749999
  endloop
endfacet
facet normal 0.0 0.0 1.0
  outer loop
    vertex -2.8007225893943386 -3.3401508299408635 1.819999999749999
    vertex -3.250722589394337 -3.840150829940864 1.819999999749999
    vertex -2.8007225893943377 -3.840150829940864 1.819999999749999
  endloop
endfacet
facet normal 1.4099832412739491e-15 -1.0 0.0
  outer loop
    vertex -2.2007225893943376 -6.140150829440869 0.9999999999999982
    vertex -2.6007225893943375 -6.140150829440871 0.5999999999999982
    vertex -2.2007225893943376 -6.140150829440869 0.5999999999999982
  endloop
endfacet
facet normal 1.4099832412739491e-15 -1.0 0.0
  outer loop
    vertex -2.6007225893943375 -6.140150829440871 0.5999999999999982
    vertex -2.2007225893943376 -6.140150829440869 0.9999999999999982
    vertex -2.6007225893943375 -6.140150829440871 0.9999999999999982
  endloop
endfacet
facet normal 1.0 2.2559731860383193e-15 0.0
  outer loop
    vertex -2.6007225893943375 -6.140150829440871 0.5999999999999982
    vertex -2.6007225893943366 -6.64015082944087 0.9999999999999982
    vertex -2.6007225893943366 -6.64015082944087 0.5999999999999982
  endloop
endfacet
facet normal 1.0 2.2559731860383193e-15 0.0
  outer loop
    vertex -2.6007225893943366 -6.64015082944087 0.9999999999999982
    vertex -2.6007225893943375 -6.140150829440871 0.5999999999999982
    vertex -2.6007225893943375 -6.140150829440871 0.9999999999999982
  endloop
endfacet
facet normal 0.0 -1.0 0.0
  outer loop
    vertex -2.6007225893943366 -6.64015082944087 0.9999999999999982
    vertex -2.8007225893943373 -6.64015082944087 0.5999999999999982
    vertex -2.6007225893943366 -6.64015082944087 0.5999999999999982
  endloop
endfacet
facet normal 0.0 -1.0 0.0
  outer loop
    vertex -2.8007225893943373 -6.64015082944087 0.5999999999999982
    vertex -2.6007225893943366 -6.64015082944087 0.9999999999999982
    vertex -2.8007225893943373 -6.64015082944087 0.9999999999999982
  endloop
endfacet
facet normal 0.0 0.0 -1.0
  outer loop
    vertex -2.2007225893943376 -6.140150829440869 0.9999999999999982
    vertex -2.6007225893943366 -6.64015082944087 0.9999999999999982
    vertex -2.6007225893943375 -6.140150829440871 0.9999999999999982
  endloop
endfacet
facet normal 0.0 0.0 -1.0
  outer loop
    vertex -4.25296003503758 4.572296332554464 0.9999999999999982
    vertex -4.300244328394335 -3.3401508299408635 0.9999999999999982
    vertex -4.390395747536333 4.525643194626839 0.9999999999999982
  endloop
endfacet
facet normal 0.0 0.0 -1.0
  outer loop
    vertex -4.300244328394335 -3.3401508299408635 0.9999999999999982
    vertex -4.25296003503758 4.572296332554464 0.9999999999999982
    vertex -3.401306614025398 -0.7957627807367564 0.9999999999999982
  endloop
endfacet
facet normal 0.0 0.0 -1.0
  outer loop
    vertex -4.300244328394335 -3.3401508299408635 0.9999999999999982
    vertex -3.401306614025398 -0.7957627807367564 0.9999999999999982
    vertex -2.8007225893943386 -3.3401508299408635 0.9999999999999982
  endloop
endfacet
facet normal 0.0 0.0 -1.0
  outer loop
    vertex -3.401306614025398 -0.7957627807367564 0.9999999999999982
    vertex -4.25296003503758 4.572296332554464 0.9999999999999982
    vertex -3.5205662220136587 0.11010387712206546 0.9999999999999982
  endloop
endfacet
facet normal 0.0 0.0 -1.0
  outer loop
    vertex -3.5205662220136587 0.11010387712206546 0.9999999999999982
    vertex -4.25296003503758 4.572296332554464 0.9999999999999982
    vertex -4.110610647662633 4.600611386192261 0.9999999999999982
  endloop
endfacet
facet normal 0.0 0.0 -1.0
  outer loop
    vertex -3.5205662220136587 0.11010387712206546 0.9999999999999982
    vertex -4.110610647662633 4.600611386192261 0.9999999999999982
    vertex -3.9657832228961847 4.610103877122065 0.9999999999999982
  endloop
endfacet
facet normal 0.0 0.0 -1.0
  outer loop
    vertex -2.8007225893943386 -3.3401508299408635 0.9999999999999982
    vertex -3.401306614025398 -0.7957627807367564 0.9999999999999982
    vertex -3.0516551352591947 -1.6398961228779325 0.9999999999999982
  endloop
endfacet
facet normal 0.0 0.0 -1.0
  outer loop
    vertex -2.8007225893943386 -3.3401508299408635 0.9999999999999982
    vertex -3.0516551352591947 -1.6398961228779325 0.9999999999999982
    vertex -2.495439956166575 -2.3647698570308506 0.9999999999999982
  endloop
endfacet
facet normal 0.0 0.0 -1.0
  outer loop
    vertex -2.8007225893943386 -3.3401508299408635 0.9999999999999982
    vertex -2.495439956166575 -2.3647698570308506 0.9999999999999982
    vertex -2.6007225893943375 -3.3401508299408635 0.9999999999999982
  endloop
endfacet
facet normal 0.0 0.0 -1.0
  outer loop
    vertex -2.6007225893943375 -3.3401508299408635 0.9999999999999982
    vertex -2.495439956166575 -2.3647698570308506 0.9999999999999982
    vertex -2.6007225893943375 -3.840150829940864 0.9999999999999982
  endloop
endfacet
facet normal 0.0 0.0 -1.0
  outer loop
    vertex -2.6007225893943375 -3.840150829940864 0.9999999999999982
    vertex -2.495439956166575 -2.3647698570308506 0.9999999999999982
    vertex -2.2007225893943385 -3.840150829940864 0.9999999999999982
  endloop
endfacet
facet normal 0.0 0.0 -1.0
  outer loop
    vertex -2.2007225893943385 -3.840150829940864 0.9999999999999982
    vertex -2.495439956166575 -2.3647698570308506 0.9999999999999982
    vertex -1.77056622201366 -2.920985036123469 0.9999999999999982
  endloop
endfacet
facet normal 0.0 0.0 -1.0
  outer loop
    vertex -1.2907225893943381 -6.039288449079781 0.9999999999999982
    vertex -2.2007225893943376 -6.140150829440869 0.9999999999999982
    vertex -2.2007225893943385 -6.03928844907978 0.9999999999999982
  endloop
endfacet
facet normal 0.0 0.0 -1.0
  outer loop
    vertex -2.2007225893943385 -3.840150829940864 0.9999999999999982
    vertex -1.2907225893943381 -5.02101320980196 0.9999999999999982
    vertex -2.200722589394339 -5.02101320980196 0.9999999999999982
  endloop
endfacet
facet normal 0.0 0.0 -1.0
  outer loop
    vertex -1.2907225893943381 -5.02101320980196 0.9999999999999982
    vertex -2.2007225893943385 -3.840150829940864 0.9999999999999982
    vertex -1.77056622201366 -2.920985036123469 0.9999999999999982
  endloop
endfacet
facet normal 0.0 0.0 -1.0
  outer loop
    vertex -1.2907225893943381 -5.02101320980196 0.9999999999999982
    vertex -1.77056622201366 -2.920985036123469 0.9999999999999982
    vertex -0.9264328798724839 -3.2706365148896737 0.9999999999999982
  endloop
endfacet
facet normal 0.0 0.0 -1.0
  outer loop
    vertex -1.2907225893943381 -5.02101320980196 0.9999999999999982
    vertex -0.9264328798724839 -3.2706365148896737 0.9999999999999982
    vertex -1.2907225893943381 -6.039288449079781 0.9999999999999982
  endloop
endfacet
facet normal 0.0 0.0 -1.0
  outer loop
    vertex -3.9657832228961847 4.610103877122065 0.9999999999999982
    vertex -3.401306614025397 1.0159705349808907 0.9999999999999982
    vertex -3.5205662220136587 0.11010387712206546 0.9999999999999982
  endloop
endfacet
facet normal 0.0 0.0 -1.0
  outer loop
    vertex -3.401306614025397 1.0159705349808907 0.9999999999999982
    vertex -3.9657832228961847 4.610103877122065 0.9999999999999982
    vertex -3.0516551352591925 1.860103877122068 0.9999999999999982
  endloop
endfacet
facet normal 0.0 0.0 -1.0
  outer loop
    vertex -3.0516551352591925 1.860103877122068 0.9999999999999982
    vertex -3.9657832228961847 4.610103877122065 0.9999999999999982
    vertex -2.4954399561665737 2.5849776112749825 0.9999999999999982
  endloop
endfacet
facet normal 0.0 0.0 -1.0
  outer loop
    vertex -2.4954399561665737 2.5849776112749825 0.9999999999999982
    vertex -3.9657832228961847 4.610103877122065 0.9999999999999982
    vertex -1.7705662220136573 3.1411927903676 0.9999999999999982
  endloop
endfacet
facet normal 0.0 0.0 -1.0
  outer loop
    vertex -1.7705662220136573 3.1411927903676 0.9999999999999982
    vertex -3.9657832228961847 4.610103877122065 0.9999999999999982
    vertex -0.9264328798724799 3.490844269133804 0.9999999999999982
  endloop
endfacet
facet normal 0.0 0.0 -1.0
  outer loop
    vertex -0.9264328798724799 3.490844269133804 0.9999999999999982
    vertex -3.9657832228961847 4.610103877122065 0.9999999999999982
    vertex 3.9246507788688674 4.610103877122065 0.9999999999999982
  endloop
endfacet
facet normal 0.0 0.0 -1.0
  outer loop
    vertex -0.9264328798724799 3.490844269133804 0.9999999999999982
    vertex 3.9246507788688674 4.610103877122065 0.9999999999999982
    vertex -0.020566222013658094 3.610103877122065 0.9999999999999982
  endloop
endfacet
facet normal 0.0 0.0 -1.0
  outer loop
    vertex -0.020566222013658094 3.610103877122065 0.9999999999999982
    vertex 3.9246507788688674 4.610103877122065 0.9999999999999982
    vertex 0.8853004358451649 3.490844269133804 0.9999999999999982
  endloop
endfacet
facet normal 0.0 0.0 -1.0
  outer loop
    vertex 0.8853004358451649 3.490844269133804 0.9999999999999982
    vertex 3.9246507788688674 4.610103877122065 0.9999999999999982
    vertex 1.7294337779863433 3.1411927903676 0.9999999999999982
  endloop
endfacet
facet normal 0.0 0.0 -1.0
  outer loop
    vertex 1.7294337779863433 3.1411927903676 0.9999999999999982
    vertex 3.9246507788688674 4.610103877122065 0.9999999999999982
    vertex 2.4543075121392577 2.5849776112749825 0.9999999999999982
  endloop
endfacet
facet normal 0.0 0.0 -1.0
  outer loop
    vertex 2.4543075121392577 2.5849776112749825 0.9999999999999982
    vertex 3.9246507788688674 4.610103877122065 0.9999999999999982
    vertex 3.0105226912318774 1.8601038771220635 0.9999999999999982
  endloop
endfacet
facet normal 0.0 0.0 -1.0
  outer loop
    vertex 3.0105226912318774 1.8601038771220635 0.9999999999999982
    vertex 3.9246507788688674 4.610103877122065 0.9999999999999982
    vertex 3.3601741699980807 1.0159705349808874 0.9999999999999982
  endloop
endfacet
facet normal 0.0 0.0 -1.0
  outer loop
    vertex 3.3601741699980807 1.0159705349808874 0.9999999999999982
    vertex 3.9246507788688674 4.610103877122065 0.9999999999999982
    vertex 3.4794337779863413 0.11010387712206432 0.9999999999999982
  endloop
endfacet
facet normal 0.0 0.0 -1.0
  outer loop
    vertex -0.020566222013658094 -3.389896122877935 0.9999999999999982
    vertex -0.6590010993371611 -3.817293249981711 0.9999999999999982
    vertex -0.9264328798724839 -3.2706365148896737 0.9999999999999982
  endloop
endfacet
facet normal 0.0 0.0 -1.0
  outer loop
    vertex -0.6590010993371611 -3.817293249981711 0.9999999999999982
    vertex -0.020566222013658094 -3.389896122877935 0.9999999999999982
    vertex 4.34099890066284 -3.817293249981711 0.9999999999999982
  endloop
endfacet
facet normal 0.0 0.0 -1.0
  outer loop
    vertex 4.34099890066284 -3.817293249981711 0.9999999999999982
    vertex -0.020566222013658094 -3.389896122877935 0.9999999999999982
    vertex 0.8853004358451637 -3.2706365148896737 0.9999999999999982
  endloop
endfacet
facet normal 0.0 0.0 -1.0
  outer loop
    vertex 4.34099890066284 -3.817293249981711 0.9999999999999982
    vertex 0.8853004358451637 -3.2706365148896737 0.9999999999999982
    vertex 1.7294337779863411 -2.9209850361234713 0.9999999999999982
  endloop
endfacet
facet normal 0.0 0.0 -1.0
  outer loop
    vertex 4.34099890066284 -3.817293249981711 0.9999999999999982
    vertex 1.7294337779863411 -2.9209850361234713 0.9999999999999982
    vertex 2.4543075121392577 -2.3647698570308515 0.9999999999999982
  endloop
endfacet
facet normal 0.0 0.0 -1.0
  outer loop
    vertex 4.34099890066284 -3.817293249981711 0.9999999999999982
    vertex 2.4543075121392577 -2.3647698570308515 0.9999999999999982
    vertex 3.0105226912318765 -1.639896122877935 0.9999999999999982
  endloop
endfacet
facet normal 0.0 0.0 -1.0
  outer loop
    vertex 4.34099890066284 -3.817293249981711 0.9999999999999982
    vertex 3.0105226912318765 -1.639896122877935 0.9999999999999982
    vertex 3.3601741699980807 -0.7957627807367587 0.9999999999999982
  endloop
endfacet
facet normal 0.0 0.0 -1.0
  outer loop
    vertex 4.34099890066284 -3.817293249981711 0.9999999999999982
    vertex 3.3601741699980807 -0.7957627807367587 0.9999999999999982
    vertex 3.4794337779863413 0.11010387712206432 0.9999999999999982
  endloop
endfacet
facet normal 0.0 0.0 -1.0
  outer loop
    vertex 4.34099890066284 -3.817293249981711 0.9999999999999982
    vertex 3.4794337779863413 0.11010387712206432 0.9999999999999982
    vertex 3.9246507788688674 4.610103877122065 0.9999999999999982
  endloop
endfacet
facet normal 0.0 0.0 -1.0
  outer loop
    vertex 4.34099890066284 -3.817293249981711 0.9999999999999982
    vertex 3.9246507788688674 4.610103877122065 0.9999999999999982
    vertex 4.05517697108892 4.601548738495875 0.9999999999999982
  endloop
endfacet
facet normal 0.0 0.0 -1.0
  outer loop
    vertex 4.34099890066284 -3.817293249981711 0.9999999999999982
    vertex 4.05517697108892 4.601548738495875 0.9999999999999982
    vertex 4.183469823971389 4.576029703411132 0.9999999999999982
  endloop
endfacet
facet normal 0.0 0.0 -1.0
  outer loop
    vertex 4.34099890066284 -3.817293249981711 0.9999999999999982
    vertex 4.183469823971389 4.576029703411132 0.9999999999999982
    vertex 4.307334211233957 4.533983409633353 0.9999999999999982
  endloop
endfacet
facet normal 0.0 0.0 -1.0
  outer loop
    vertex 4.34099890066284 -3.817293249981711 0.9999999999999982
    vertex 4.307334211233957 4.533983409633353 0.9999999999999982
    vertex 4.424650778868869 4.476129280906505 0.9999999999999982
  endloop
endfacet
facet normal 0.0 0.0 -1.0
  outer loop
    vertex 4.34099890066284 -3.817293249981711 0.9999999999999982
    vertex 4.424650778868869 4.476129280906505 0.9999999999999982
    vertex 4.34099890066284 -6.317293249981711 0.9999999999999982
  endloop
endfacet
facet normal 0.0 0.0 -1.0
  outer loop
    vertex -5.065856730201331 3.6453653036535623 0.9999999999999982
    vertex -5.0753492211311375 -6.889896122877929 0.9999999999999982
    vertex -5.0753492211311375 3.5005378788871138 0.9999999999999982
  endloop
endfacet
facet normal 0.0 0.0 -1.0
  outer loop
    vertex -5.0753492211311375 -6.889896122877929 0.9999999999999982
    vertex -5.065856730201331 3.6453653036535623 0.9999999999999982
    vertex -4.300244328394335 -6.64015082944087 0.9999999999999982
  endloop
endfacet
facet normal 0.0 0.0 -1.0
  outer loop
    vertex -5.0753492211311375 -6.889896122877929 0.9999999999999982
    vertex -4.300244328394335 -6.64015082944087 0.9999999999999982
    vertex 4.924650778868868 -6.88989612287793 0.9999999999999982
  endloop
endfacet
facet normal 0.0 0.0 -1.0
  outer loop
    vertex -4.300244328394335 -6.64015082944087 0.9999999999999982
    vertex -5.065856730201331 3.6453653036535623 0.9999999999999982
    vertex -5.037541676563535 3.787714691028508 0.9999999999999982
  endloop
endfacet
facet normal 0.0 0.0 -1.0
  outer loop
    vertex -4.300244328394335 -6.64015082944087 0.9999999999999982
    vertex -5.037541676563535 3.787714691028508 0.9999999999999982
    vertex -4.990888538635912 3.9251504035272604 0.9999999999999982
  endloop
endfacet
facet normal 0.0 0.0 -1.0
  outer loop
    vertex -4.300244328394335 -6.64015082944087 0.9999999999999982
    vertex -4.990888538635912 3.9251504035272604 0.9999999999999982
    vertex -4.926695564543093 4.05532087800459 0.9999999999999982
  endloop
endfacet
facet normal 0.0 0.0 -1.0
  outer loop
    vertex -4.300244328394335 -6.64015082944087 0.9999999999999982
    vertex -4.926695564543093 4.05532087800459 0.9999999999999982
    vertex -4.846061113869463 4.1759988615521095 0.9999999999999982
  endloop
endfacet
facet normal 0.0 0.0 -1.0
  outer loop
    vertex -4.300244328394335 -6.64015082944087 0.9999999999999982
    vertex -4.846061113869463 4.1759988615521095 0.9999999999999982
    vertex -4.75036486442214 4.28511952041307 0.9999999999999982
  endloop
endfacet
facet normal 0.0 0.0 -1.0
  outer loop
    vertex -4.300244328394335 -6.64015082944087 0.9999999999999982
    vertex -4.75036486442214 4.28511952041307 0.9999999999999982
    vertex -4.641244205561182 4.380815769860391 0.9999999999999982
  endloop
endfacet
facet normal 0.0 0.0 -1.0
  outer loop
    vertex -4.300244328394335 -6.64015082944087 0.9999999999999982
    vertex -4.641244205561182 4.380815769860391 0.9999999999999982
    vertex -4.520566222013661 4.4614502205340205 0.9999999999999982
  endloop
endfacet
facet normal 0.0 0.0 -1.0
  outer loop
    vertex -4.300244328394335 -6.64015082944087 0.9999999999999982
    vertex -4.520566222013661 4.4614502205340205 0.9999999999999982
    vertex -4.390395747536333 4.525643194626839 0.9999999999999982
  endloop
endfacet
facet normal 0.0 0.0 -1.0
  outer loop
    vertex -4.300244328394335 -6.64015082944087 0.9999999999999982
    vertex -4.390395747536333 4.525643194626839 0.9999999999999982
    vertex -4.300244328394335 -3.3401508299408635 0.9999999999999982
  endloop
endfacet
facet normal 0.0 0.0 -1.0
  outer loop
    vertex -4.300244328394335 -6.64015082944087 0.9999999999999982
    vertex -4.300244328394335 -3.3401508299408635 0.9999999999999982
    vertex -4.300244328394335 -3.840150829940864 0.9999999999999982
  endloop
endfacet
facet normal 0.0 0.0 -1.0
  outer loop
    vertex -4.300244328394335 -6.64015082944087 0.9999999999999982
    vertex -4.300244328394335 -3.840150829940864 0.9999999999999982
    vertex -4.300244328394335 -6.140150829440871 0.9999999999999982
  endloop
endfacet
facet normal 0.0 0.0 -1.0
  outer loop
    vertex 4.924650778868868 -6.88989612287793 0.9999999999999982
    vertex -4.300244328394335 -6.64015082944087 0.9999999999999982
    vertex -2.8007225893943373 -6.64015082944087 0.9999999999999982
  endloop
endfacet
facet normal 0.0 0.0 -1.0
  outer loop
    vertex 4.924650778868868 -6.88989612287793 0.9999999999999982
    vertex -2.8007225893943373 -6.64015082944087 0.9999999999999982
    vertex -2.6007225893943366 -6.64015082944087 0.9999999999999982
  endloop
endfacet
facet normal 0.0 0.0 -1.0
  outer loop
    vertex 4.924650778868868 -6.88989612287793 0.9999999999999982
    vertex -2.6007225893943366 -6.64015082944087 0.9999999999999982
    vertex -0.6590010993371611 -6.317293249981711 0.9999999999999982
  endloop
endfacet
facet normal 0.0 0.0 -1.0
  outer loop
    vertex -0.6590010993371611 -6.317293249981711 0.9999999999999982
    vertex -2.6007225893943366 -6.64015082944087 0.9999999999999982
    vertex -2.2007225893943376 -6.140150829440869 0.9999999999999982
  endloop
endfacet
facet normal 0.0 0.0 -1.0
  outer loop
    vertex -0.6590010993371611 -6.317293249981711 0.9999999999999982
    vertex -2.2007225893943376 -6.140150829440869 0.9999999999999982
    vertex -1.2907225893943381 -6.039288449079781 0.9999999999999982
  endloop
endfacet
facet normal 0.0 0.0 -1.0
  outer loop
    vertex -0.6590010993371611 -6.317293249981711 0.9999999999999982
    vertex -1.2907225893943381 -6.039288449079781 0.9999999999999982
    vertex -0.9264328798724839 -3.2706365148896737 0.9999999999999982
  endloop
endfacet
facet normal 0.0 0.0 -1.0
  outer loop
    vertex -0.6590010993371611 -6.317293249981711 0.9999999999999982
    vertex -0.9264328798724839 -3.2706365148896737 0.9999999999999982
    vertex -0.6590010993371611 -3.817293249981711 0.9999999999999982
  endloop
endfacet
facet normal 0.0 0.0 -1.0
  outer loop
    vertex 4.924650778868868 -6.88989612287793 0.9999999999999982
    vertex -0.6590010993371611 -6.317293249981711 0.9999999999999982
    vertex 4.34099890066284 -6.317293249981711 0.9999999999999982
  endloop
endfacet
facet normal 0.0 0.0 -1.0
  outer loop
    vertex 4.924650778868868 -6.88989612287793 0.9999999999999982
    vertex 4.34099890066284 -6.317293249981711 0.9999999999999982
    vertex 4.424650778868869 4.476129280906505 0.9999999999999982
  endloop
endfacet
facet normal 0.0 0.0 -1.0
  outer loop
    vertex 4.924650778868868 -6.88989612287793 0.9999999999999982
    vertex 4.424650778868869 4.476129280906505 0.9999999999999982
    vertex 4.533412207877589 4.403457217413302 0.9999999999999982
  endloop
endfacet
facet normal 0.0 0.0 -1.0
  outer loop
    vertex 4.924650778868868 -6.88989612287793 0.9999999999999982
    vertex 4.533412207877589 4.403457217413302 0.9999999999999982
    vertex 4.631757560055416 4.317210658308612 0.9999999999999982
  endloop
endfacet
facet normal 0.0 0.0 -1.0
  outer loop
    vertex 4.924650778868868 -6.88989612287793 0.9999999999999982
    vertex 4.631757560055416 4.317210658308612 0.9999999999999982
    vertex 4.718004119160103 4.2188653061307875 0.9999999999999982
  endloop
endfacet
facet normal 0.0 0.0 -1.0
  outer loop
    vertex 4.924650778868868 -6.88989612287793 0.9999999999999982
    vertex 4.718004119160103 4.2188653061307875 0.9999999999999982
    vertex 4.790676182653306 4.110103877122066 0.9999999999999982
  endloop
endfacet
facet normal 0.0 0.0 -1.0
  outer loop
    vertex 4.924650778868868 -6.88989612287793 0.9999999999999982
    vertex 4.790676182653306 4.110103877122066 0.9999999999999982
    vertex 4.848530311380155 3.992787309487155 0.9999999999999982
  endloop
endfacet
facet normal 0.0 0.0 -1.0
  outer loop
    vertex 4.924650778868868 -6.88989612287793 0.9999999999999982
    vertex 4.848530311380155 3.992787309487155 0.9999999999999982
    vertex 4.890576605157936 3.8689229222245856 0.9999999999999982
  endloop
endfacet
facet normal 0.0 0.0 -1.0
  outer loop
    vertex 4.924650778868868 -6.88989612287793 0.9999999999999982
    vertex 4.890576605157936 3.8689229222245856 0.9999999999999982
    vertex 4.916095640242678 3.7406300693421155 0.9999999999999982
  endloop
endfacet
facet normal 0.0 0.0 -1.0
  outer loop
    vertex 4.924650778868868 -6.88989612287793 0.9999999999999982
    vertex 4.916095640242678 3.7406300693421155 0.9999999999999982
    vertex 4.924650778868868 3.610103877122065 0.9999999999999982
  endloop
endfacet
facet normal -0.6156725483968704 -4.2331757789752307e-16 0.7880021022500533
  outer loop
    vertex -3.250722589394337 -3.840150829940864 1.819999999749999
    vertex -4.300244328394335 -3.3401508299408635 0.9999999999999982
    vertex -4.300244328394335 -3.840150829940864 0.9999999999999982
  endloop
endfacet
facet normal -0.6156725483968704 -4.2331757789752307e-16 0.7880021022500533
  outer loop
    vertex -4.300244328394335 -3.3401508299408635 0.9999999999999982
    vertex -3.250722589394337 -3.840150829940864 1.819999999749999
    vertex -3.2507225893943374 -3.3401508299408635 1.819999999749999
  endloop
endfacet
facet normal 1.0 1.1279865930191593e-15 5.797561630507144e-47
  outer loop
    vertex -2.8007225893943386 -3.3401508299408635 0.5999999999999982
    vertex -2.8007225893943377 -3.840150829940864 1.819999999749999
    vertex -2.8007225893943377 -3.840150829940864 0.5999999999999982
  endloop
endfacet
facet normal 1.0 1.1279865930191593e-15 5.797561630507144e-47
  outer loop
    vertex -2.8007225893943377 -3.840150829940864 1.819999999749999
    vertex -2.8007225893943386 -3.3401508299408635 0.5999999999999982
    vertex -2.8007225893943386 -3.3401508299408635 1.819999999749999
  endloop
endfacet
facet normal 1.0 1.1279865930191593e-15 5.797561630507144e-47
  outer loop
    vertex -2.8007225893943386 -3.3401508299408635 1.819999999749999
    vertex -2.8007225893943386 -3.3401508299408635 0.5999999999999982
    vertex -2.8007225893943386 -3.3401508299408635 0.9999999999999982
  endloop
endfacet
facet normal 0.0 0.0 -1.0
  outer loop
    vertex -2.6007225893943375 -3.3401508299408635 0.5999999999999982
    vertex -2.8007225893943377 -3.840150829940864 0.5999999999999982
    vertex -2.8007225893943386 -3.3401508299408635 0.5999999999999982
  endloop
endfacet
facet normal 0.0 0.0 -1.0
  outer loop
    vertex -2.8007225893943377 -3.840150829940864 0.5999999999999982
    vertex -2.6007225893943375 -3.3401508299408635 0.5999999999999982
    vertex -2.8007225893943377 -6.140150829440871 0.5999999999999982
  endloop
endfacet
facet normal 0.0 0.0 -1.0
  outer loop
    vertex -2.8007225893943377 -6.140150829440871 0.5999999999999982
    vertex -2.6007225893943375 -3.3401508299408635 0.5999999999999982
    vertex -2.8007225893943373 -6.64015082944087 0.5999999999999982
  endloop
endfacet
facet normal 0.0 0.0 -1.0
  outer loop
    vertex -2.8007225893943373 -6.64015082944087 0.5999999999999982
    vertex -2.6007225893943375 -3.3401508299408635 0.5999999999999982
    vertex -2.6007225893943375 -6.140150829440871 0.5999999999999982
  endloop
endfacet
facet normal 0.0 0.0 -1.0
  outer loop
    vertex -2.8007225893943373 -6.64015082944087 0.5999999999999982
    vertex -2.6007225893943375 -6.140150829440871 0.5999999999999982
    vertex -2.6007225893943366 -6.64015082944087 0.5999999999999982
  endloop
endfacet
facet normal 0.0 0.0 -1.0
  outer loop
    vertex -2.6007225893943375 -6.140150829440871 0.5999999999999982
    vertex -2.6007225893943375 -3.3401508299408635 0.5999999999999982
    vertex -2.6007225893943375 -3.840150829940864 0.5999999999999982
  endloop
endfacet
facet normal 0.0 0.0 -1.0
  outer loop
    vertex -2.8007225893943377 -3.840150829940864 0.5999999999999982
    vertex -4.300244328394335 -6.140150829440871 0.5999999999999982
    vertex -4.300244328394335 -3.840150829940864 0.5999999999999982
  endloop
endfacet
facet normal 0.0 0.0 -1.0
  outer loop
    vertex -4.300244328394335 -6.140150829440871 0.5999999999999982
    vertex -2.8007225893943377 -3.840150829940864 0.5999999999999982
    vertex -2.8007225893943377 -6.140150829440871 0.5999999999999982
  endloop
endfacet
facet normal 0.0 0.0 -1.0
  outer loop
    vertex -2.2007225893943385 -3.840150829940864 0.5999999999999982
    vertex -2.6007225893943375 -6.140150829440871 0.5999999999999982
    vertex -2.6007225893943375 -3.840150829940864 0.5999999999999982
  endloop
endfacet
facet normal 0.0 0.0 -1.0
  outer loop
    vertex -2.6007225893943375 -6.140150829440871 0.5999999999999982
    vertex -2.2007225893943385 -3.840150829940864 0.5999999999999982
    vertex -2.200722589394339 -5.02101320980196 0.5999999999999982
  endloop
endfacet
facet normal 0.0 0.0 -1.0
  outer loop
    vertex -1.2907225893943381 -5.02101320980196 0.5999999999999982
    vertex -2.2007225893943385 -6.03928844907978 0.5999999999999982
    vertex -2.200722589394339 -5.02101320980196 0.5999999999999982
  endloop
endfacet
facet normal 0.0 0.0 -1.0
  outer loop
    vertex -2.2007225893943385 -6.03928844907978 0.5999999999999982
    vertex -1.2907225893943381 -5.02101320980196 0.5999999999999982
    vertex -1.2907225893943381 -6.039288449079781 0.5999999999999982
  endloop
endfacet
facet normal 0.0 0.0 -1.0
  outer loop
    vertex -2.6007225893943375 -6.140150829440871 0.5999999999999982
    vertex -2.2007225893943385 -6.03928844907978 0.5999999999999982
    vertex -2.2007225893943376 -6.140150829440869 0.5999999999999982
  endloop
endfacet
facet normal 0.0 0.0 -1.0
  outer loop
    vertex -2.2007225893943385 -6.03928844907978 0.5999999999999982
    vertex -2.6007225893943375 -6.140150829440871 0.5999999999999982
    vertex -2.200722589394339 -5.02101320980196 0.5999999999999982
  endloop
endfacet
facet normal -1.8136564424390085e-16 1.0 -4.028027023850011e-17
  outer loop
    vertex -4.300244328394335 -3.840150829940864 0.9999999999999982
    vertex -2.8007225893943377 -3.840150829940864 0.5999999999999982
    vertex -4.300244328394335 -3.840150829940864 0.5999999999999982
  endloop
endfacet
facet normal -1.8136564424390085e-16 1.0 -4.028027023850011e-17
  outer loop
    vertex -2.8007225893943377 -3.840150829940864 0.5999999999999982
    vertex -4.300244328394335 -3.840150829940864 0.9999999999999982
    vertex -2.8007225893943377 -3.840150829940864 1.819999999749999
  endloop
endfacet
facet normal -1.8136564424390085e-16 1.0 -4.028027023850011e-17
  outer loop
    vertex -2.8007225893943377 -3.840150829940864 1.819999999749999
    vertex -4.300244328394335 -3.840150829940864 0.9999999999999982
    vertex -3.250722589394337 -3.840150829940864 1.819999999749999
  endloop
endfacet
facet normal -1.7090408116249195e-17 -1.0 -4.878709217323098e-16
  outer loop
    vertex -2.8007225893943377 -6.140150829440871 1.819999999749999
    vertex -4.300244328394335 -6.140150829440871 0.5999999999999982
    vertex -2.8007225893943377 -6.140150829440871 0.5999999999999982
  endloop
endfacet
facet normal -1.7090408116249195e-17 -1.0 -4.878709217323098e-16
  outer loop
    vertex -4.300244328394335 -6.140150829440871 0.5999999999999982
    vertex -2.8007225893943377 -6.140150829440871 1.819999999749999
    vertex -4.300244328394335 -6.140150829440871 0.9999999999999982
  endloop
endfacet
facet normal -1.7090408116249195e-17 -1.0 -4.878709217323098e-16
  outer loop
    vertex -4.300244328394335 -6.140150829440871 0.9999999999999982
    vertex -2.8007225893943377 -6.140150829440871 1.819999999749999
    vertex -3.250722589394337 -6.140150829440871 1.819999999749999
  endloop
endfacet
facet normal 0.0 1.0 0.0
  outer loop
    vertex -3.250722589394337 -6.64015082944087 1.819999999749999
    vertex -2.8007225893943373 -6.64015082944087 0.9999999999999982
    vertex -4.300244328394335 -6.64015082944087 0.9999999999999982
  endloop
endfacet
facet normal 0.0 1.0 0.0
  outer loop
    vertex -2.8007225893943373 -6.64015082944087 0.9999999999999982
    vertex -3.250722589394337 -6.64015082944087 1.819999999749999
    vertex -2.8007225893943377 -6.64015082944087 1.819999999749999
  endloop
endfacet
facet normal 0.6156725483968701 3.7392121683365787e-16 -0.7880021022500534
  outer loop
    vertex -3.250722589394337 -6.140150829440871 1.819999999749999
    vertex -4.300244328394335 -6.64015082944087 0.9999999999999982
    vertex -4.300244328394335 -6.140150829440871 0.9999999999999982
  endloop
endfacet
facet normal 0.6156725483968701 3.7392121683365787e-16 -0.7880021022500534
  outer loop
    vertex -4.300244328394335 -6.64015082944087 0.9999999999999982
    vertex -3.250722589394337 -6.140150829440871 1.819999999749999
    vertex -3.250722589394337 -6.64015082944087 1.819999999749999
  endloop
endfacet
facet normal -1.0 -7.519910620127737e-16 -2.478770952049326e-16
  outer loop
    vertex -2.8007225893943377 -6.140150829440871 1.819999999749999
    vertex -2.8007225893943373 -6.64015082944087 0.9999999999999982
    vertex -2.8007225893943377 -6.64015082944087 1.819999999749999
  endloop
endfacet
facet normal -1.0 -7.519910620127737e-16 -2.478770952049326e-16
  outer loop
    vertex -2.8007225893943373 -6.64015082944087 0.9999999999999982
    vertex -2.8007225893943377 -6.140150829440871 1.819999999749999
    vertex -2.8007225893943373 -6.64015082944087 0.5999999999999982
  endloop
endfacet
facet normal -1.0 -7.519910620127737e-16 -2.478770952049326e-16
  outer loop
    vertex -2.8007225893943373 -6.64015082944087 0.5999999999999982
    vertex -2.8007225893943377 -6.140150829440871 1.819999999749999
    vertex -2.8007225893943377 -6.140150829440871 0.5999999999999982
  endloop
endfacet
facet normal 0.0 4.8787092173231e-16 -1.0
  outer loop
    vertex -2.8007225893943377 -6.140150829440871 1.819999999749999
    vertex -3.250722589394337 -6.64015082944087 1.819999999749999
    vertex -3.250722589394337 -6.140150829440871 1.819999999749999
  endloop
endfacet
facet normal 0.0 4.8787092173231e-16 -1.0
  outer loop
    vertex -3.250722589394337 -6.64015082944087 1.819999999749999
    vertex -2.8007225893943377 -6.140150829440871 1.819999999749999
    vertex -2.8007225893943377 -6.64015082944087 1.819999999749999
  endloop
endfacet
endsolid NETPIE_Glass
